<?xml version="1.0" encoding="utf-8"?>
<!-- Generator: Adobe Illustrator 19.2.1, SVG Export Plug-In . SVG Version: 6.00 Build 0)  -->
<svg version="1.1" id="Layer_1" xmlns="http://www.w3.org/2000/svg" xmlns:xlink="http://www.w3.org/1999/xlink" x="0px" y="0px"
	 viewBox="0 0 117 16" enable-background="new 0 0 117 16" xml:space="preserve">
<g enable-background="new    ">
	<path fill="#FFFFFF" d="M0,14.937V0.197l0.903-0.21L7.202,7.21l6.257-7.223l0.903,0.21v14.739H10.94V7.84l-3.632,4.409H7.076
		L3.443,7.944v6.992H0V14.937z"/>
	<path fill="#FFFFFF" d="M21.042,14.937l6.887-14.865h1.218l6.824,14.865h-3.843l-0.818-1.785h-5.564l-0.819,1.785H21.042z
		 M26.985,10.296h3.065l-1.533-3.611L26.985,10.296z"/>
	<path fill="#FFFFFF" d="M51.07,3.137h-3.905v11.8h-3.464v-11.8h-3.885v-2.94H51.07V3.137z"/>
	<path fill="#FFFFFF" d="M58.485,0.197h3.465v14.739h-3.465V0.197z"/>
	<path fill="#FFFFFF" d="M78.811,4.081c-0.882-0.504-2.268-1.028-3.254-1.028c-1.155,0-2.121,0.42-2.121,1.218
		s1.029,1.26,2.541,1.848c3.653,1.449,4.451,3.129,4.409,4.85c-0.063,2.688-2.541,4.283-5.585,4.263
		c-2.142-0.021-4.179-1.008-5.123-1.784l1.26-2.667c0.818,0.588,2.31,1.364,3.632,1.364c0.987,0,2.331-0.209,2.331-1.154
		c0-0.986-1.827-1.449-3.339-2.162c-2.184-1.029-3.611-2.373-3.611-4.557c0-2.246,1.974-4.367,5.291-4.367
		c1.869,0,3.969,0.902,4.683,1.281L78.811,4.081z"/>
	<path fill="#FFFFFF" d="M97.606,11.997v2.939h-9.679V0.197h9.511v2.939h-6.047v2.897h4.997v2.939h-4.997v3.023h6.215V11.997z"/>
	<path fill="#FFFFFF" d="M107.331,11.157c1.112,0,2.016,0.924,2.016,1.994c0,1.155-0.903,1.995-2.016,1.995
		c-1.071,0-1.995-0.84-1.995-1.995C105.335,12.081,106.259,11.157,107.331,11.157z"/>
</g>
</svg>
